<?xml version="1.0" encoding="utf-8"?>
<!-- Generator: Adobe Illustrator 28.1.0, SVG Export Plug-In . SVG Version: 6.00 Build 0)  -->
<svg version="1.1" id="Layer_1" xmlns="http://www.w3.org/2000/svg" xmlns:xlink="http://www.w3.org/1999/xlink" x="0px" y="0px"
	 viewBox="0 0 256 256" style="enable-background:new 0 0 256 256;" xml:space="preserve">
<style type="text/css">
	.st0{fill:#1477FB;}
	.st1{fill:#FFFFFF;}
</style>
<rect class="st0" width="256" height="256"/>
<g>
	<path class="st1" d="M169.1,132.7c-2.9-4.4-9.8-6.7-14.7-8c-0.6-0.2-1.2-0.3-1.8-0.5h-0.1c-2.7-0.7-5.7-1.5-8-2.8
		c-2.7-1.5-4-3.5-4-6c0-0.4,0-0.8,0.1-1.2v-0.1c0-0.2,0.1-0.4,0.1-0.5c0,0,0,0,0-0.1v0c0.3-1,0.9-2,1.7-2.8c2-2.1,5.2-3.2,8.8-3.2
		h0.1c2.6,0.1,5.2,0.7,7.6,1.8c2.4,1.1,4.5,2.7,6.3,4.6l0,5.2v0.1h4.5v-15.8h-4.4v3.6c0,0.1,0,0.1-0.1,0.1c0,0-0.1,0-0.1-0.1
		c-1.9-1.5-4-2.6-6.2-3.4c-2.4-0.8-4.9-1.3-7.4-1.3c-2.9,0-5.3,0.3-7.2,1c-1.6,0.6-3.2,1.4-4.5,2.6c-1.4,1.2-2.6,2.6-3.4,4.3
		c-0.8,1.6-1.2,3.4-1.2,5.2c0,1.1,0.1,2.1,0.4,3.2c0.3,1.1,0.9,2.2,1.5,3.2c0.1,0.1,0.1,0.2,0.2,0.3c0.1,0.1,0.1,0.1,0.1,0.1l0,0.1
		c2.9,4.1,9.4,5.9,14.2,7.3l0.1,0l1.1,0.3l1.1,0.3c2.5,0.6,4.9,1.4,7.2,2.5c1.2,0.6,2.3,1.4,3.2,2.4c0.8,1,1.3,2.1,1.5,3.4
		c0.2,1.2,0.1,2.5-0.3,3.7c-0.5,1.4-1.2,2.6-2.3,3.6c-1.1,1-2.4,1.8-3.9,2.3c-1.4,0.5-2.8,0.7-4.3,0.8c-2.3,0.1-4.6-0.2-6.9-0.8
		c-3.8-1.2-7.3-3.6-9.5-6.5c-0.1-0.1-0.1-0.2-0.2-0.3l0-4.5v-0.1h-4.5v16.5h4.5v-4.8c1.9,1.7,4,3,6.4,3.8c2.7,1,5.6,1.6,8.5,1.7h0.4
		c2.5,0,8.3,0,12.8-3.9c1.3-1.1,2.3-2.5,3.1-4c0.7-1.4,1.2-3,1.4-4.6c0.2-1.6,0.1-3.1-0.2-4.7C170.6,135.3,170,133.9,169.1,132.7z"
		/>
	<path class="st1" d="M125.1,132.7c-2.8-4.3-9.8-6.7-14.7-8c-0.6-0.2-1.2-0.3-1.8-0.5c-5.4-1.4-12.1-3.1-12.2-8.8
		c0-0.9,0.2-1.7,0.5-2.5c0.4-0.8,0.9-1.6,1.5-2.2c2-2,5.2-3.2,8.8-3.2h0.1c2.6,0.1,5.2,0.7,7.6,1.8c2.4,1.1,4.5,2.7,6.3,4.6l0.1,5.2
		v0.1h4.5v-15.8h-4.4v3.6c0,0.1,0,0.1-0.1,0.1c0,0-0.1,0-0.1-0.1c-1.9-1.5-4-2.6-6.2-3.4c-2.4-0.8-4.9-1.3-7.4-1.3
		c-2.9,0-5.3,0.3-7.3,1c-1.6,0.6-3.2,1.4-4.5,2.6c-1.4,1.2-2.6,2.6-3.4,4.3c-0.8,1.6-1.2,3.4-1.2,5.3c0,1.1,0.1,2.1,0.4,3.2
		c0.3,1.1,0.8,2.2,1.5,3.2c2.8,4.5,9.6,6.4,14.6,7.8l0.1,0l1,0.3l1,0.3l0.1,0c2.5,0.6,4.9,1.4,7.2,2.5c1.2,0.6,2.3,1.4,3.2,2.5
		c0.8,1,1.3,2.2,1.6,3.4c0.2,1.2,0.1,2.5-0.3,3.7c-0.5,1.4-1.2,2.6-2.3,3.6c-1.1,1-2.4,1.8-3.8,2.2c-1.4,0.5-2.8,0.7-4.3,0.8
		c-0.3,0-0.6,0-0.9,0c-2,0-4.1-0.3-6-0.8c-0.2-0.1-0.5-0.2-0.7-0.2h0c-0.5-0.2-0.9-0.3-1.4-0.6c-2.2-1-4.2-2.4-5.9-4.1l-0.1-0.1
		c-0.3-0.3-0.5-0.6-0.8-0.9l-0.2-0.2c-0.1-0.1-0.2-0.3-0.3-0.4c-0.1-0.1-0.1-0.2-0.2-0.3l0-4.5v-0.1h-4.5v16.5h4.5v-4.8
		c1.9,1.7,4,3,6.4,3.8c2.7,1,5.6,1.6,8.5,1.7h0.4c2.5,0,8.2,0,12.8-3.9c1.3-1.1,2.3-2.5,3.1-4c0.7-1.4,1.2-3,1.4-4.6
		c0.2-1.6,0.1-3.1-0.2-4.7C126.7,135.3,126,133.9,125.1,132.7z"/>
	<path class="st1" d="M79.4,149.4l-12.2-18.8c2.1,0.1,4.1-0.3,6-1.2c2.7-1.4,4.8-3.1,6.1-5.7c1.1-2.1,1.6-4.5,1.6-6.9
		c0-3.8-1.5-7.4-4-10.1c-2.8-2.6-6.3-3.9-10.7-3.9H42.6v5.2h5v41.4h-5.4v4.4H58v-4.4h-5.1v-18.8h8.5l11.9,18.8h-5.4v4.4h17v-4.4
		h-5.3C79.5,149.5,79.5,149.5,79.4,149.4z M52.9,107.8h13c4,0,7.1,1.6,8.6,4.4c1.5,2.9,1.5,6.3-0.1,9.1c-1.6,2.8-3.5,4.3-7.7,4.3
		H52.9V107.8z"/>
	<path class="st1" d="M211.8,138.8c0-6.2-3.1-10.8-8.2-12.7c4.3-2.3,6.3-6.2,6.3-10.1c0-9.1-7.5-13.9-17.2-13.9
		c-5.3,0-11,1.9-14.9,7.4l4,2.7c2.2-3,5.3-5.3,10.8-5.3c7.1,0,12.1,2.9,12.1,8.5c0,5.6-5,8.4-10.2,8.4h-7v5.2h7.4
		c6.6,0,11.8,3.6,11.6,9.8c-0.4,6.6-6,10.1-13.4,10.1c-4.8,0-10-1.5-14-5.8l-3.5,3.8c5,4.8,10.9,7.2,17.5,7.2
		C203.3,154,211.8,148.3,211.8,138.8z"/>
	<path class="st1" d="M38.9,125.6H26.1v5.4h12.8V125.6z"/>
	<path class="st1" d="M229.9,125.6h-12.8v5.4h12.8V125.6z"/>
</g>
</svg>
